<?xml version="1.0" encoding="UTF-8" standalone="no"?>
<svg
   xmlns:dc="http://purl.org/dc/elements/1.1/"
   xmlns:cc="http://creativecommons.org/ns#"
   xmlns:rdf="http://www.w3.org/1999/02/22-rdf-syntax-ns#"
   xmlns:svg="http://www.w3.org/2000/svg"
   xmlns="http://www.w3.org/2000/svg"
   viewBox="0 0 508 465.02667"
   height="465.02667"
   width="508"
   xml:space="preserve"
   id="svg2"
   version="1.1"><metadata
     id="metadata8"><rdf:RDF><cc:Work
         rdf:about=""><dc:format>image/svg+xml</dc:format><dc:type
           rdf:resource="http://purl.org/dc/dcmitype/StillImage" /></cc:Work></rdf:RDF></metadata><defs
     id="defs6" /><g
     transform="matrix(1.3333333,0,0,-1.3333333,0,465.02667)"
     id="g10"><g
       transform="scale(0.1)"
       id="g12"><path
         id="path14"
         style="fill:#231f20;fill-opacity:1;fill-rule:nonzero;stroke:none"
         d="m 3166.21,1994.85 c -28.83,11.68 -61.6,-2.19 -73.28,-30.98 -31.52,-77.74 -106.21,-127.97 -190.23,-127.97 -54.77,0 -106.37,21.37 -145.2,60.12 -19.61,19.57 -34.73,42.38 -44.96,67.77 -11.64,28.79 -44.41,42.74 -73.24,31.09 -28.83,-11.6 -42.74,-44.37 -31.1,-73.2 15.94,-39.49 39.38,-74.88 69.77,-105.27 60.15,-59.96 139.96,-93.01 224.73,-93.01 130.07,0 245.66,77.81 294.49,198.2 11.68,28.75 -2.19,61.57 -30.98,73.25 v 0" /><path
         id="path16"
         style="fill:#ffffff;fill-opacity:1;fill-rule:nonzero;stroke:none"
         d="m 2660.32,1983.98 c -5.14,0 -10.36,-0.96 -15.4,-3 -10.23,-4.12 -18.22,-11.96 -22.53,-22.07 -4.31,-10.15 -4.41,-21.37 -0.28,-31.62 15.18,-37.62 37.55,-71.36 66.46,-100.27 57.32,-57.14 133.37,-88.62 214.13,-88.62 123.92,0 234.06,74.12 280.59,188.84 4.14,10.2 4.05,21.4 -0.23,31.54 -4.29,10.15 -12.28,18.03 -22.48,22.17 v 0 c -21.1,8.55 -45.2,-1.65 -53.75,-22.72 -33.83,-83.42 -113.96,-137.33 -204.13,-137.33 -58.79,0 -114.12,22.91 -155.8,64.5 -21.02,20.99 -37.26,45.47 -48.28,72.78 -6.48,16.04 -21.98,25.8 -38.3,25.8 z M 2902.7,1708.4 c -88.75,0 -172.33,34.59 -235.32,97.38 -31.8,31.81 -56.38,68.9 -73.08,110.28 -7.14,17.68 -6.97,37.07 0.49,54.59 7.44,17.5 21.25,31.04 38.91,38.15 36.43,14.71 78.03,-2.97 92.75,-39.39 9.49,-23.55 23.5,-44.67 41.65,-62.78 36.01,-35.93 83.81,-55.73 134.6,-55.73 77.9,0 147.11,46.56 176.33,118.61 14.77,36.39 56.4,53.99 92.82,39.24 h 0.01 c 17.62,-7.15 31.42,-20.75 38.83,-38.28 7.42,-17.54 7.55,-36.9 0.39,-54.51 C 3159.95,1789.88 3038.9,1708.4 2902.7,1708.4" /><path
         id="path18"
         style="fill:#231f20;fill-opacity:1;fill-rule:nonzero;stroke:none"
         d="m 2579.41,2380.24 c -31.05,0 -56.25,-25.2 -56.25,-56.25 v -31.18 c 0,-31.09 25.2,-56.25 56.25,-56.25 31.1,0 56.25,25.16 56.25,56.25 v 31.18 c 0,31.05 -25.15,56.25 -56.25,56.25 v 0" /><path
         id="path20"
         style="fill:#ffffff;fill-opacity:1;fill-rule:nonzero;stroke:none"
         d="m 2579.41,2365.24 c -22.74,0 -41.25,-18.51 -41.25,-41.25 v -31.18 c 0,-22.74 18.51,-41.25 41.25,-41.25 22.75,0 41.25,18.51 41.25,41.25 v 31.18 c 0,22.74 -18.5,41.25 -41.25,41.25 z m 0,-143.68 c -39.28,0 -71.25,31.96 -71.25,71.25 v 31.18 c 0,39.29 31.97,71.25 71.25,71.25 39.29,0 71.25,-31.96 71.25,-71.25 v -31.18 c 0,-39.29 -31.96,-71.25 -71.25,-71.25" /><path
         id="path22"
         style="fill:#231f20;fill-opacity:1;fill-rule:nonzero;stroke:none"
         d="m 3225.98,2380.24 c -31.06,0 -56.25,-25.2 -56.25,-56.25 v -31.18 c 0,-31.09 25.19,-56.25 56.25,-56.25 31.09,0 56.25,25.16 56.25,56.25 v 31.18 c 0,31.05 -25.16,56.25 -56.25,56.25 v 0" /><path
         id="path24"
         style="fill:#ffffff;fill-opacity:1;fill-rule:nonzero;stroke:none"
         d="m 3225.98,2365.24 c -22.75,0 -41.25,-18.51 -41.25,-41.25 v -31.18 c 0,-22.74 18.5,-41.25 41.25,-41.25 22.74,0 41.25,18.51 41.25,41.25 v 31.18 c 0,22.74 -18.51,41.25 -41.25,41.25 z m 0,-143.68 c -39.29,0 -71.25,31.96 -71.25,71.25 v 31.18 c 0,39.29 31.96,71.25 71.25,71.25 39.28,0 71.25,-31.96 71.25,-71.25 v -31.18 c 0,-39.29 -31.97,-71.25 -71.25,-71.25" /><path
         id="path26"
         style="fill:#231f20;fill-opacity:1;fill-rule:nonzero;stroke:none"
         d="m 1237.15,1994.85 c -28.79,11.68 -61.6,-2.19 -73.28,-30.98 -31.53,-77.74 -106.17,-127.97 -190.198,-127.97 -54.801,0 -106.402,21.37 -145.234,60.12 -19.61,19.61 -34.727,42.38 -44.958,67.77 -11.64,28.79 -44.378,42.74 -73.21,31.09 -28.821,-11.6 -42.731,-44.37 -31.129,-73.2 15.937,-39.45 39.41,-74.84 69.808,-105.27 60.11,-59.96 139.922,-93.01 224.723,-93.01 130.038,0 245.628,77.81 294.448,198.2 11.68,28.79 -2.18,61.57 -30.97,73.25 v 0" /><path
         id="path28"
         style="fill:#ffffff;fill-opacity:1;fill-rule:nonzero;stroke:none"
         d="m 731.273,1983.97 c -5.128,0 -10.343,-0.96 -15.382,-2.99 -21.094,-8.5 -31.328,-32.58 -22.832,-53.7 15.164,-37.54 37.543,-71.28 66.504,-100.27 57.273,-57.13 133.32,-88.61 214.109,-88.61 123.908,0 234.038,74.12 280.548,188.84 8.55,21.06 -1.64,45.16 -22.71,53.71 v 0 c -21.11,8.58 -45.19,-1.64 -53.74,-22.72 -33.84,-83.42 -113.95,-137.33 -204.098,-137.33 -58.809,0 -114.145,22.91 -155.828,64.5 -21.063,21.06 -37.301,45.55 -48.274,72.78 -6.484,16.04 -21.976,25.79 -38.297,25.79 z M 973.672,1708.4 c -88.789,0 -172.359,34.59 -235.317,97.39 -31.835,31.87 -56.437,68.96 -73.121,110.27 -14.683,36.48 3.012,78.07 39.434,92.74 36.387,14.7 77.988,-2.97 92.719,-39.39 9.465,-23.49 23.476,-44.61 41.656,-62.79 36.008,-35.92 83.824,-55.72 134.629,-55.72 77.868,0 147.078,46.56 176.298,118.61 14.78,36.41 56.42,53.98 92.82,39.24 v 0 c 36.39,-14.77 53.99,-56.4 39.23,-92.79 -51.13,-126.08 -172.16,-207.56 -308.348,-207.56" /><path
         id="path30"
         style="fill:#231f20;fill-opacity:1;fill-rule:nonzero;stroke:none"
         d="m 650.391,2380.24 c -31.09,0 -56.25,-25.2 -56.25,-56.25 v -31.18 c 0,-31.09 25.16,-56.25 56.25,-56.25 31.058,0 56.25,25.16 56.25,56.25 v 31.18 c 0,31.05 -25.192,56.25 -56.25,56.25 v 0" /><path
         id="path32"
         style="fill:#ffffff;fill-opacity:1;fill-rule:nonzero;stroke:none"
         d="m 650.391,2365.24 c -22.746,0 -41.25,-18.51 -41.25,-41.25 v -31.18 c 0,-22.74 18.504,-41.25 41.25,-41.25 22.746,0 41.25,18.51 41.25,41.25 v 31.18 c 0,22.74 -18.504,41.25 -41.25,41.25 z m 0,-143.68 c -39.286,0 -71.25,31.96 -71.25,71.25 v 31.18 c 0,39.29 31.964,71.25 71.25,71.25 39.289,0 71.25,-31.96 71.25,-71.25 v -31.18 c 0,-39.29 -31.961,-71.25 -71.25,-71.25" /><path
         id="path34"
         style="fill:#231f20;fill-opacity:1;fill-rule:nonzero;stroke:none"
         d="m 1296.95,2380.24 c -31.09,0 -56.25,-25.2 -56.25,-56.25 v -31.18 c 0,-31.09 25.16,-56.25 56.25,-56.25 31.06,0 56.25,25.16 56.25,56.25 v 31.18 c 0,31.05 -25.19,56.25 -56.25,56.25 v 0" /><path
         id="path36"
         style="fill:#ffffff;fill-opacity:1;fill-rule:nonzero;stroke:none"
         d="m 1296.95,2365.24 c -22.75,0 -41.25,-18.51 -41.25,-41.25 v -31.18 c 0,-22.74 18.5,-41.25 41.25,-41.25 22.74,0 41.25,18.51 41.25,41.25 v 31.18 c 0,22.74 -18.51,41.25 -41.25,41.25 z m 0,-143.68 c -39.29,0 -71.25,31.96 -71.25,71.25 v 31.18 c 0,39.29 31.96,71.25 71.25,71.25 39.29,0 71.25,-31.96 71.25,-71.25 v -31.18 c 0,-39.29 -31.96,-71.25 -71.25,-71.25" /><path
         id="path38"
         style="fill:#231f20;fill-opacity:1;fill-rule:nonzero;stroke:none"
         d="m 3130.21,1435.16 -2.56,-1.08 c -71.92,-28.74 -147.45,-43.22 -224.99,-43.22 -77.7,0 -153.48,14.6 -225.24,43.38 l -3.41,1.36 c -215.77,88.09 -362.96,295.38 -374.97,528.12 -1.14,21.94 -19.24,39.13 -41.19,39.13 h -51.17 c -60.42,0 -109.57,49.17 -109.57,109.61 l -0.04,71.33 c 0,60.44 49.17,109.61 109.61,109.61 h 50.2 c 22.74,0 41.24,18.51 41.24,41.25 v 304.3 l 17.16,-2.5 c 70.82,-10.35 143.37,-15.59 215.66,-15.59 319.37,0 635.88,105.55 891.23,297.19 l 13.96,10.49 8.26,-15.39 c 41.08,-76.6 62.8,-163.44 62.8,-251.12 v -327.38 c 0,-22.74 18.5,-41.25 41.25,-41.25 h 50.31 c 60.37,0 109.49,-49.17 109.49,-109.61 v -71.33 c 0,-60.44 -49.12,-109.61 -109.49,-109.61 h -51.17 c -21.98,0 -40.08,-17.17 -41.19,-39.08 -8.06,-154.78 -74.41,-299.02 -186.82,-406.15 -55.23,-52.65 -118.94,-93.85 -189.36,-122.46 z m -26.42,-323.13 c 0,-70.46 -104.02,-160.542 -193.1,-216.26 l -7.96,-4.989 -7.95,4.989 c -89.14,55.742 -193.22,145.84 -193.22,216.26 v 226.07 l 18.97,-5.2 c 118.59,-32.48 245.01,-32.56 364.3,0.05 l 18.96,5.18 z m -821.45,317.46 c -112.73,0 -204.45,91.71 -204.45,204.46 v 333.45 l 23.26,-15.35 c 31.38,-20.7 67.8,-31.67 105.31,-31.7 l 13.19,-0.01 1.68,-13.09 c 22.82,-178.64 113.53,-338.82 255.44,-451 l 33.86,-26.76 z m 1445.16,204.46 c 0,-112.75 -91.68,-204.46 -204.37,-204.46 h -228.51 l 33.9,26.76 c 16.58,13.11 32.72,27.11 47.96,41.64 113.94,108.59 187.66,253.97 207.58,409.37 l 1.68,13.08 13.2,0.01 c 37.52,0.03 73.93,11.01 105.29,31.73 l 23.27,15.38 z M 1750.43,794.102 V 82.5 h -187.7 v 391.879 c 0,22.742 -18.51,41.25 -41.25,41.25 -22.74,0 -41.25,-18.508 -41.25,-41.25 V 82.5 H 467.109 v 391.879 c 0,22.742 -18.504,41.25 -41.25,41.25 -22.746,0 -41.25,-18.508 -41.25,-41.25 V 82.5 h -187.66 v 555.391 h 121.489 c 79.546,0 144.261,64.718 144.261,144.257 v 360.362 l 11.531,2.75 c 27.372,6.52 55.536,9.82 83.7,9.82 h 132.148 v -43.05 c 0,-156.37 127.203,-283.589 283.551,-283.589 75.821,0 147.041,29.5 200.561,83.071 53.55,53.539 83.04,124.748 83.04,200.518 v 43.05 h 132.22 c 199.05,0 360.98,-161.932 360.98,-360.978 z M 82.5,819.34 v 306.01 c 0,54.59 44.391,98.99 98.949,98.99 h 136.989 c 34.058,0 61.761,-27.71 61.761,-61.76 V 782.148 c 0,-34.046 -27.703,-61.757 -61.761,-61.757 H 181.449 c -54.558,0 -98.949,44.39 -98.949,98.949 z m 1092.23,518.81 v -226.12 c 0,-53.76 -20.92,-104.27 -58.9,-142.21 -37.92,-37.941 -88.42,-58.84 -142.201,-58.84 -110.859,0 -201.051,90.2 -201.051,201.05 v 226.07 l 18.961,-5.2 c 118.856,-32.53 245.201,-32.59 364.221,0.04 z m -804.75,625.56 v 0.02 c -1.117,21.94 -19.21,39.12 -41.191,39.12 h -51.168 c -60.379,0 -109.5,49.17 -109.5,109.61 v 71.33 c 0,60.44 49.121,109.61 109.5,109.61 h 50.309 c 22.746,0 41.25,18.51 41.25,41.25 v 199.69 l 12.875,1.84 c 113.34,16.2 173.058,58.43 199.687,141.2 l 7.379,22.94 17.328,-16.76 c 47.492,-45.92 102.531,-85.51 163.59,-117.67 264.511,-139.25 575.271,-101.45 789.391,-45.21 l 18.81,4.94 v -190.97 c 0,-22.74 18.51,-41.25 41.25,-41.25 h 50.2 c 60.42,0 109.57,-49.17 109.57,-109.61 v -71.33 c 0,-60.44 -49.15,-109.61 -109.57,-109.61 h -51.17 c -21.95,0 -40.05,-17.18 -41.2,-39.11 -8.05,-154.81 -74.38,-299.04 -186.77,-406.12 -55.64,-53 -119.69,-94.34 -190.36,-122.86 l -1.08,-0.48 c -71.81,-28.81 -147.64,-43.42 -225.399,-43.42 -77.789,0 -153.594,14.61 -225.32,43.43 -0.957,0.4 -1.68,0.66 -2.383,0.92 -216.746,88.47 -363.977,295.78 -376.028,528.5 z M 2354.92,0 h 1365.74 c 22.75,0 41.25,18.5117 41.25,41.25 v 752.852 c 0,244.538 -198.94,443.478 -443.47,443.478 h -132.15 v 109.41 h 336.84 c 158.18,0 286.87,128.73 286.87,286.96 v 850.04 c 0,22.74 -18.51,41.25 -41.25,41.25 -22.74,0 -41.25,-18.51 -41.25,-41.25 v -155.22 l -23.27,15.4 c -29.79,19.7 -64.36,30.64 -99.97,31.65 l -14.57,0.42 v 285.79 c 0,126.19 -37.97,247.48 -109.82,350.74 -6.54,9.43 -16.8,15.73 -28.16,17.29 -11.44,1.62 -22.96,-1.67 -31.85,-8.96 -249.7,-204.9 -565.4,-317.74 -888.92,-317.74 -89.55,0 -178.92,8.48 -265.62,25.19 -11.75,2.27 -23.86,-0.65 -33.25,-8.01 -9.41,-7.37 -15.16,-18.44 -15.76,-30.36 -0.47,-9.1 -0.69,-18.31 -0.69,-28.15 v -285.79 l -14.58,-0.42 c -35.53,-1 -70.07,-11.95 -99.88,-31.66 l -23.27,-15.38 v 453.72 c 0,343.34 279.33,622.66 622.66,622.66 h 373.12 c 76.07,0 144.75,-45.12 174.98,-114.94 l 23.83,-55.13 c 6.55,-15.09 21.43,-24.85 37.87,-24.85 h 112.58 c 167.94,0 304.57,-136.63 304.57,-304.57 v -156.1 c 0,-22.75 18.51,-41.25 41.25,-41.25 22.74,0 41.25,18.5 41.25,41.25 v 156.1 c 0,213.43 -173.64,387.07 -387.07,387.07 h -85.48 l -13.09,30.25 c -43.33,100.03 -141.74,164.67 -250.73,164.67 h -373.12 c -388.83,0 -705.16,-316.33 -705.16,-705.16 V 1633.95 c 0,-158.23 128.73,-286.96 286.95,-286.96 h 336.76 V 1237.58 H 1257.23 v 131.86 l 8.61,4.05 c 66.85,31.44 127.94,73.29 181.58,124.4 113.99,108.57 187.7,253.95 207.58,409.36 l 1.67,13.09 13.19,0.01 c 105.84,0.11 191.94,86.29 191.94,192.11 v 71.33 c 0,44.85 -15.93,88.58 -44.87,123.14 l -4.91,5.88 131.33,519.81 c 2.7,10.69 1.08,21.78 -4.57,31.24 -5.65,9.46 -14.65,16.16 -25.34,18.87 -10.67,2.67 -21.75,1.04 -31.21,-4.58 -9.48,-5.65 -16.17,-14.63 -18.86,-25.28 l -123.69,-489.55 -15.01,4.5 c -16.1,4.83 -32.71,7.52 -49.36,8 l -14.57,0.43 v 204.42 c 0,13.01 -6.26,25.42 -16.74,33.18 -10.47,7.73 -24.15,10.08 -36.58,6.27 -312.09,-95.74 -586.14,-90.41 -792.549,15.45 -156.433,80.27 -221.008,191.04 -221.644,192.15 -9.235,16.45 -28.305,24.56 -46.473,19.83 -18.141,-4.74 -30.816,-21.16 -30.816,-39.93 0,-147.58 -35.668,-183.91 -190.825,-194.37 -21.574,-1.47 -38.472,-19.55 -38.472,-41.18 v -195.83 l -14.575,-0.42 c -18.57,-0.52 -36.933,-3.75 -54.586,-9.59 l -15.144,-5.01 -4.07,15.42 c -24.657,93.48 -40.039,161.85 -44.481,197.73 -10.597,85.26 0.176,354.9 0.285,357.61 l 0.032,1.73 c 0,100.36 81.656,182 182.027,182 h 85.281 c 10.875,0 21.516,4.41 29.195,12.09 l 201.211,201.25 c 44.379,44.39 109.848,62.91 170.922,48.35 l 707.532,-168.31 c 36.13,-8.6 73.31,-12.96 110.51,-12.96 107.62,0 213.24,36.91 297.41,103.92 10.43,8.39 20.31,3.61 24.07,1.17 3.77,-2.42 12.25,-9.53 8.7,-22.58 l -42.51,-168.32 c -2.71,-10.69 -1.09,-21.78 4.56,-31.25 5.64,-9.46 14.64,-16.16 25.31,-18.86 10.72,-2.71 21.83,-1.07 31.29,4.58 9.45,5.64 16.13,14.62 18.81,25.28 l 42.62,168.64 c 10.99,43.61 -6.31,87.51 -44.09,111.85 -37.83,24.39 -84.99,22.04 -120.14,-5.96 -69.63,-55.46 -157.02,-86 -246.07,-86 -30.77,0 -61.53,3.62 -91.42,10.76 l -707.484,168.32 c -88.684,21.15 -183.832,-5.81 -248.379,-70.32 L 404.336,3198.24 h -68.207 c -145.231,0 -263.8946,-118.15 -264.5274,-263.38 -1.1368,-29.09 -10.6797,-282.08 0.3164,-370.63 5.6875,-45.91 24.9883,-129.62 57.359,-248.81 l 1.973,-7.27 -4.648,-5.92 C 99.7891,2268.06 85.6211,2227.11 85.6211,2183.79 v -71.33 c 0,-105.82 86.0269,-192 191.7739,-192.11 l 13.191,-0.01 1.672,-13.09 c 29.847,-233.64 175.344,-433.16 389.203,-533.71 l 8.617,-4.05 V 1237.58 H 557.93 c -33.047,0 -66,-3.66 -97.946,-10.88 l -10.82,-2.45 -5.508,9.63 c -25.734,45 -73.718,72.96 -125.218,72.96 H 181.449 C 81.3984,1306.84 0,1225.42 0,1125.35 V 819.34 C 0,748.84 41.5039,684.141 105.73,654.531 l 8.719,-4.031 V 41.25 C 114.449,18.5117 132.953,0 155.699,0 H 1791.68 c 22.74,0 41.25,18.5117 41.25,41.25 v 752.852 c 0,128.199 -55.77,250.168 -153,334.658 l -30.29,26.32 h 969.42 v -43.05 c 0,-153.729 236.61,-289.952 263.59,-304.979 12.33,-6.832 28.04,-6.789 40.14,-0.02 26.99,15.059 263.5,151.41 263.5,304.999 v 43.05 h 132.15 c 199.04,0 360.97,-161.932 360.97,-360.978 V 82.5 h -187.65 v 391.879 c 0,22.742 -18.51,41.25 -41.25,41.25 -22.75,0 -41.25,-18.508 -41.25,-41.25 V 82.5 H 2396.17 v 661.949 c 0,22.75 -18.5,41.262 -41.25,41.262 H 2017.5 c -22.74,0 -41.25,-18.512 -41.25,-41.262 0,-22.75 18.51,-41.238 41.25,-41.238 h 296.17 V 41.25 C 2313.67,18.5117 2332.18,0 2354.92,0" /></g></g></svg>