<?xml version="1.0" encoding="UTF-8" standalone="no"?>
<svg
   xmlns:dc="http://purl.org/dc/elements/1.1/"
   xmlns:cc="http://creativecommons.org/ns#"
   xmlns:rdf="http://www.w3.org/1999/02/22-rdf-syntax-ns#"
   xmlns:svg="http://www.w3.org/2000/svg"
   xmlns="http://www.w3.org/2000/svg"
   viewBox="0 0 606.66669 606.66669"
   height="606.66669"
   width="606.66669"
   xml:space="preserve"
   id="svg2"
   version="1.1"><metadata
     id="metadata8"><rdf:RDF><cc:Work
         rdf:about=""><dc:format>image/svg+xml</dc:format><dc:type
           rdf:resource="http://purl.org/dc/dcmitype/StillImage" /></cc:Work></rdf:RDF></metadata><defs
     id="defs6" /><g
     transform="matrix(1.3333333,0,0,-1.3333333,0,606.66667)"
     id="g10"><g
       transform="scale(0.1)"
       id="g12"><path
         id="path14"
         style="fill:#231f20;fill-opacity:1;fill-rule:nonzero;stroke:none"
         d="m 3191.4,791.219 -94.97,164.511 -89.85,-51.839 94.99,-164.532 89.83,51.86" /><path
         id="path16"
         style="fill:#231f20;fill-opacity:1;fill-rule:nonzero;stroke:none"
         d="m 2223.12,4018.16 v -343.28 h 103.76 v 343.28 h -103.76" /><path
         id="path18"
         style="fill:#231f20;fill-opacity:1;fill-rule:nonzero;stroke:none"
         d="m 2275,2173.55 c -55.94,0 -101.45,45.51 -101.45,101.45 0,55.94 45.51,101.45 101.45,101.45 55.94,0 101.45,-45.51 101.45,-101.45 0,-55.94 -45.51,-101.45 -101.45,-101.45 z m 201.16,60.96 c 2.68,13.46 4.04,27.08 4.04,40.49 0,88.05 -56.16,166.18 -139.73,194.41 l -13.59,4.59 V 3481.56 H 2223.12 V 2474 l -13.6,-4.59 C 2125.95,2441.17 2069.8,2363.05 2069.8,2275 c 0,-113.14 92.05,-205.2 205.2,-205.2 49.87,0 98.01,18.26 135.56,51.4 l 10.77,9.52 873.45,-503.9 51.81,89.83 -873.22,503.81 2.79,14.05" /><path
         id="path20"
         style="fill:#231f20;fill-opacity:1;fill-rule:nonzero;stroke:none"
         d="m 4018.16,2223.12 v 103.76 h -343.28 v -103.76 h 343.28" /><path
         id="path22"
         style="fill:#231f20;fill-opacity:1;fill-rule:nonzero;stroke:none"
         d="m 3758.81,1358.42 51.87,89.84 -164.53,94.97 -51.87,-89.82 164.53,-94.99" /><path
         id="path24"
         style="fill:#231f20;fill-opacity:1;fill-rule:nonzero;stroke:none"
         d="m 3101.61,3810.61 -94.99,-164.54 89.82,-51.87 94.99,164.53 -89.82,51.88" /><path
         id="path26"
         style="fill:#231f20;fill-opacity:1;fill-rule:nonzero;stroke:none"
         d="m 3594.2,3096.63 51.87,-89.86 164.51,95 -51.85,89.82 -164.53,-94.96" /><path
         id="path28"
         style="fill:#231f20;fill-opacity:1;fill-rule:nonzero;stroke:none"
         d="M 2326.88,531.84 V 875.121 H 2223.12 V 531.84 h 103.76" /><path
         id="path30"
         style="fill:#231f20;fill-opacity:1;fill-rule:nonzero;stroke:none"
         d="m 791.34,3191.46 -51.871,-89.84 164.5,-94.96 51.871,89.81 -164.5,94.99" /><path
         id="path32"
         style="fill:#231f20;fill-opacity:1;fill-rule:nonzero;stroke:none"
         d="m 2275,487.031 c -985.89,0 -1787.969,802.079 -1787.969,1787.969 0,985.89 802.079,1787.97 1787.969,1787.97 985.89,0 1787.97,-802.08 1787.97,-1787.97 0,-985.89 -802.08,-1787.969 -1787.97,-1787.969 z m 0,3679.689 C 1231.9,4166.72 383.281,3318.1 383.281,2275 383.281,1231.9 1231.9,383.281 2275,383.281 c 1043.1,0 1891.72,848.619 1891.72,1891.719 0,1043.1 -848.62,1891.72 -1891.72,1891.72" /><path
         id="path34"
         style="fill:#231f20;fill-opacity:1;fill-rule:nonzero;stroke:none"
         d="m 1448.34,739.359 94.99,164.493 -89.84,51.867 -94.96,-164.5 89.81,-51.86" /><path
         id="path36"
         style="fill:#231f20;fill-opacity:1;fill-rule:nonzero;stroke:none"
         d="m 875.121,2223.12 v 103.76 H 531.84 v -103.76 h 343.281" /><path
         id="path38"
         style="fill:#231f20;fill-opacity:1;fill-rule:nonzero;stroke:none"
         d="M 3810.31,739.691 C 3400.22,329.602 2854.97,103.75 2275,103.75 1695.03,103.75 1149.78,329.602 739.688,739.691 329.594,1149.78 103.75,1695.03 103.75,2275 c 0,579.97 225.844,1125.22 635.938,1535.31 410.092,410.1 955.342,635.94 1535.312,635.94 579.97,0 1125.22,-225.84 1535.31,-635.94 410.09,-410.09 635.94,-955.34 635.94,-1535.31 0,-579.97 -225.85,-1125.22 -635.94,-1535.309 z m 73.36,3143.979 C 3453.98,4313.36 2882.68,4550 2275,4550 1667.32,4550 1096.02,4313.36 666.328,3883.67 236.641,3453.95 0,2882.64 0,2275 0,1667.36 236.641,1096.05 666.328,666.332 1096.02,236.641 1667.32,0 2275,0 2882.68,0 3453.98,236.641 3883.67,666.332 4313.36,1096.02 4550,1667.32 4550,2275 c 0,607.68 -236.64,1178.98 -666.33,1608.67" /><path
         id="path40"
         style="fill:#231f20;fill-opacity:1;fill-rule:nonzero;stroke:none"
         d="m 1358.49,3758.66 94.96,-164.54 89.85,51.87 -95,164.54 -89.81,-51.87" /><path
         id="path42"
         style="fill:#231f20;fill-opacity:1;fill-rule:nonzero;stroke:none"
         d="m 955.77,1453.46 -51.879,89.84 -164.539,-95 51.878,-89.84 164.54,95" /></g></g></svg>